<?xml version="1.0" encoding="UTF-8" ?>
<!DOCTYPE svg PUBLIC "-//W3C//DTD SVG 1.1//EN" "http://www.w3.org/Graphics/SVG/1.1/DTD/svg11.dtd">
<svg width="50pt" height="50pt" viewBox="0 0 50 50" version="1.1" xmlns="http://www.w3.org/2000/svg">
<g id="#e6dfdfe6">
<path fill="#e6dfdf" opacity="0.90" d=" M 23.22 0.00 L 26.23 0.00 C 38.50 0.45 49.15 10.90 50.00 23.12 L 50.00 26.58 C 49.36 38.86 38.70 49.43 26.42 50.00 L 23.73 50.00 C 11.36 49.53 0.60 38.86 0.00 26.50 L 0.00 23.38 C 0.69 11.23 11.09 0.79 23.22 0.00 M 20.47 3.61 C 12.44 5.24 5.67 11.76 3.78 19.74 C 1.68 27.73 4.71 36.73 11.14 41.89 C 16.58 46.45 24.31 48.03 31.11 45.99 C 38.49 43.91 44.48 37.65 46.24 30.19 C 48.30 22.23 45.28 13.28 38.89 8.13 C 33.86 3.93 26.88 2.22 20.47 3.61 Z" />
<path fill="#e6dfdf" opacity="0.90" d=" M 20.30 32.84 C 20.29 27.61 20.29 22.39 20.30 17.16 C 24.82 19.79 29.34 22.39 33.86 25.00 C 29.35 27.62 24.82 30.22 20.30 32.84 Z" />
</g>
</svg>
